<?xml version="1.0" encoding="iso-8859-1"?>
<!-- Generator: Adobe Illustrator 19.0.0, SVG Export Plug-In . SVG Version: 6.00 Build 0)  -->
<svg version="1.1" id="Layer_1" xmlns="http://www.w3.org/2000/svg" xmlns:xlink="http://www.w3.org/1999/xlink" x="0px" y="0px"
	 viewBox="0 0 512.001 512.001" style="enable-background:new 0 0 512.001 512.001;" xml:space="preserve">
<g>
	<g>
		<rect y="428.048" width="512.001" height="30.417"/>
	</g>
</g>
<g>
	<g>
		<path d="M501.345,93.296C490.733,74.917,473.6,61.77,453.1,56.278c-20.496-5.492-41.91-2.674-60.29,7.938l-150.076,86.646
			L134.323,96.759l-61.968,35.778l67.441,77.755l-39.467,22.786l-47.324-36.882L0,226.799l27.801,48.153l44.966,77.883
			l191.196-30.743l208.3-120.262C510.203,179.925,523.249,131.236,501.345,93.296z M352.217,187.85l-15.209-26.341l28.537-16.476
			l15.209,26.341L352.217,187.85z M401.388,159.46l-15.209-26.341l28.537-16.476l15.209,26.341L401.388,159.46z"/>
	</g>
</g>
<g>
</g>
<g>
</g>
<g>
</g>
<g>
</g>
<g>
</g>
<g>
</g>
<g>
</g>
<g>
</g>
<g>
</g>
<g>
</g>
<g>
</g>
<g>
</g>
<g>
</g>
<g>
</g>
<g>
</g>
</svg>
