<?xml version="1.0" encoding="iso-8859-1"?>
<!-- Generator: Adobe Illustrator 19.0.0, SVG Export Plug-In . SVG Version: 6.00 Build 0)  -->
<svg version="1.1" id="Layer_1" xmlns="http://www.w3.org/2000/svg" xmlns:xlink="http://www.w3.org/1999/xlink" x="0px" y="0px"
	 viewBox="0 0 475.118 475.118" style="enable-background:new 0 0 475.118 475.118;" xml:space="preserve">
<g>
	<path d="M384.559,427.118h-8.14c-20.41-33.733-37.656-68.372-51.793-104.118h1.991c4.418,0,8-3.582,8-8v-32c0-4.418-3.582-8-8-8
		h-18.886c-7.282-23.457-13.315-47.4-18.106-71.882h6.846c4.418,0,8-3.582,8-8v-30.882c0-4.419-3.582-8-8-8h-14.418
		c-3.53-27.438-5.633-55.541-6.26-84.409c-0.013-0.597-0.097-1.176-0.233-1.733V40c0-4.418-3.582-8-8-8h-20V8c0-4.418-3.582-8-8-8
		s-8,3.582-8,8v24h-20c-4.418,0-8,3.582-8,8v30.093c-0.136,0.557-0.22,1.136-0.233,1.733c-0.628,28.867-2.731,56.971-6.261,84.409
		h-15.299c-4.418,0-8,3.581-8,8v30.882c0,4.418,3.582,8,8,8h7.728c-4.791,24.483-10.824,48.425-18.106,71.882h-19.769
		c-4.418,0-8,3.582-8,8v32c0,4.418,3.582,8,8,8h2.873c-14.138,35.746-31.382,70.385-51.791,104.118h-8.14c-4.418,0-8,3.581-8,8v32
		c0,4.418,3.582,8,8,8h92.5c4.418,0,8-3.582,8-8v-32c0-4.419-3.582-8-8-8h-2.433C186.015,386.478,210.569,354,240.559,354
		s54.544,32.478,55.933,73.118h-4.433c-4.418,0-8,3.581-8,8v32c0,4.418,3.582,8,8,8h92.5c4.418,0,8-3.582,8-8v-32
		C392.559,430.699,388.977,427.118,384.559,427.118z M219.559,48h40v16h-40V48z M219.116,80h40.885
		c0.799,25.992,2.775,51.381,5.901,76.235h-52.687C216.341,131.381,218.317,105.992,219.116,80z M189.765,172.235h98.706v14.882
		h-98.706V172.235z M205.812,203.118h67.493c4.676,24.469,10.562,48.413,17.664,71.882h-21.352v-9.725
		c0-16.694-13.581-30.275-30.274-30.275h-0.45c-16.694,0-30.275,13.581-30.275,30.275V275h-20.47
		C195.25,251.531,201.136,227.587,205.812,203.118z M253.617,275h-29v-9.725c0-7.871,6.404-14.275,14.275-14.275h0.45
		c7.871,0,14.274,6.404,14.274,14.275V275z M159.617,291h57h45h57v16h-159V291z M179.059,459.118h-76.5v-16h4.647h69.436h2.416
		V459.118z M292.198,366.001C278.562,347.944,260.223,338,240.559,338s-38.003,9.944-51.639,28.001
		c-12.476,16.52-19.626,38.104-20.308,61.116h-47.272c19.834-33.755,36.597-68.398,50.353-104.118h135.73
		c13.756,35.72,30.519,70.363,50.353,104.118h-45.271C311.823,404.106,304.673,382.522,292.198,366.001z M376.559,459.118h-76.5v-16
		h4.416h67.436c0.008,0,0.016,0,0.02,0h4.628V459.118z"/>
	<path d="M75.902,87.13c1.501,1.501,3.535,2.343,5.657,2.343s4.156-0.843,5.657-2.343c5.166-5.166,12.036-8.012,19.343-8.012
		c7.307,0,14.177,2.846,19.343,8.012c3.124,3.125,8.189,3.125,11.314,0c3.124-3.124,3.124-8.189,0-11.313
		c-8.188-8.189-19.076-12.699-30.657-12.699c-9.082,0-17.738,2.774-25,7.92c-7.262-5.146-15.918-7.92-25-7.92
		c-11.581,0-22.469,4.51-30.657,12.699c-3.124,3.124-3.124,8.189,0,11.313c3.125,3.125,8.189,3.124,11.314,0
		c5.166-5.166,12.036-8.012,19.343-8.012S70.736,81.963,75.902,87.13z"/>
	<path d="M109.559,140.473c2.122,0,4.156-0.843,5.657-2.343c5.166-5.167,12.036-8.012,19.343-8.012
		c7.307,0,14.177,2.846,19.343,8.012c3.125,3.124,8.189,3.125,11.314,0c3.124-3.124,3.124-8.189,0-11.313
		c-8.188-8.189-19.076-12.699-30.657-12.699c-9.082,0-17.738,2.774-25,7.92c-7.262-5.146-15.918-7.92-25-7.92
		c-11.581,0-22.469,4.51-30.657,12.699c-3.124,3.124-3.124,8.19,0,11.313c3.125,3.125,8.189,3.124,11.314,0
		c5.166-5.167,12.036-8.012,19.343-8.012c7.307,0,14.177,2.846,19.343,8.012C105.403,139.63,107.437,140.473,109.559,140.473z"/>
	<path d="M449.216,208.461c-8.188-8.189-19.076-12.699-30.657-12.699c-9.082,0-17.738,2.774-25,7.92
		c-7.262-5.146-15.918-7.92-25-7.92c-11.581,0-22.469,4.51-30.657,12.699c-3.124,3.124-3.124,8.189,0,11.313
		c3.125,3.125,8.189,3.124,11.314,0c5.166-5.167,12.036-8.012,19.343-8.012s14.177,2.846,19.343,8.012
		c1.501,1.501,3.535,2.343,5.657,2.343s4.156-0.843,5.657-2.343c5.166-5.167,12.036-8.012,19.343-8.012s14.177,2.846,19.343,8.012
		c3.125,3.125,8.189,3.125,11.314,0C452.34,216.65,452.34,211.585,449.216,208.461z"/>
</g>
<g>
</g>
<g>
</g>
<g>
</g>
<g>
</g>
<g>
</g>
<g>
</g>
<g>
</g>
<g>
</g>
<g>
</g>
<g>
</g>
<g>
</g>
<g>
</g>
<g>
</g>
<g>
</g>
<g>
</g>
</svg>
